<svg xmlns="http://www.w3.org/2000/svg" width="80" height ="80" viewBox="0 0 30 30">
  <g fill="#666" transform="translate(-2.4347 -3.222)">
    <path d="M12.418 15.478c-.11848.49572-.23782.99038-.35975 1.4851-.38263 1.1293-1.4348 1.9502-2.6044 2.088 1.4812 1.1072 2.984 2.1888 4.4591 3.3033.96007.59176 1.7463 1.6178 2.9289 1.7416.3812.02938.76836-.0304 1.1193-.18352 1.4785-.57034 1.8722-2.7209.69637-3.7797-2.0554-1.5814-4.1542-3.1096-6.2393-4.6548z"/>
    <path d="M17.324 17.989c.0848.2738 1.0606.82502 1.4848 1.2097 1.7715 1.0723 1.8171 3.9533.11262 5.1092-1.109.86684-2.7507.80608-3.8492-.04541-.36988-.1549-.98772-.93496-1.167-.76038v3.501h-1.4207v2.6312h-2.901v3.522h15.588v-3.522h-3.0469v-2.6312h-1.315c.0023-1.9754-.0046-3.9522.0031-5.9264-.20336-1.7122-1.727-3.1696-3.4887-3.0878zm7.1199-12.235c.06656.75392-.16302 1.5326-.72312 2.0807-.55589.60126-1.396.91128-2.2095.83368-.06176-.0038-.12304-.01093-.18351-.01944l.65629 2.7625 4.7775 1.6067-3.7809-2.3444.63078-1.6589 1.2603-1.0415 1.5398-.13856 1.5958 3.8842-.63195-4.8857z"/>
    <path d="M21.739 7.8463c-.42927.00998-.85804-.14503-1.1765-.43428.26418-.2826.46792-.62316.58174-.99337.26055-.69384.17701-1.4875-.16367-2.139.23397-.10052.48942-.15182.74378-.15556.67735-.01617 1.3806.33355 1.6804.95926.34419.55787.2882 1.2949-.04538 1.8441-.3249.56362-.9581.96608-1.6204.91878z"/>
    <path d="M21.724 4.1238c-.25438.00374-.5086.05504-.74257.15556.34067.65145.42328 1.4454.16273 2.1393-.11383.37019-.31663.71124-.58081.99378.31843.28926.74736.4441 1.1766.43412.66237.0473 1.2953-.3557 1.6202-.91936.33357-.54916.38885-1.2855.04466-1.8434-.29981-.62575-1.0035-.97627-1.6808-.9601zm-10.059 3.732c-1.3997-.01957-2.3461-1.7463-1.5946-2.9316.44367-.8816 1.4945-1.0714 2.3889-1.038 2.103-.08678 4.2072-.2779 6.3095-.30045 1.3779.13815 2.1781 1.8937 1.3695 3.024-.51586.8621-1.5804.94325-2.4799.93545-1.9978.09924-3.9951.23154-5.9934.31068z"/>
    <a transform="translate(2.9712 -10.859) scale(2.3518)">
      <path d="M2.5725 7.1707c-.31728 1.2932-.60172 2.5961-.90848 3.8923-.20391.56778.20774 1.2464.81391 1.3033.43874.05933.89218-.21142 1.0423-.62892.28614-1.1455.54054-2.3002.80822-3.451-.2966.00564-.59246.00114-.88625-.0186-.5483-.10715-.84704-.59627-.86972-1.0971z"/>
    </a>
  </g>
</svg>
