<svg width="1280" height="640" version="1.1" viewBox="0 0 480 240" xmlns="http://www.w3.org/2000/svg">
 <g transform="matrix(3.3187 0 0 3.3187 181.47 18.072)" fill="#666" style="fill:#656565">
  <path d="m12.418 15.478c-0.11848 0.49572-0.23782 0.99038-0.35975 1.4851-0.38263 1.1293-1.4348 1.9502-2.6044 2.088 1.4812 1.1072 2.984 2.1888 4.4591 3.3033 0.96007 0.59176 1.7463 1.6178 2.9289 1.7416 0.3812 0.02938 0.76836-0.0304 1.1193-0.18352 1.4785-0.57034 1.8722-2.7209 0.69637-3.7797-2.0554-1.5814-4.1542-3.1096-6.2393-4.6548z" style="fill:#656565"/>
  <path d="m17.324 17.989c0.0848 0.2738 1.0606 0.82502 1.4848 1.2097 1.7715 1.0723 1.8171 3.9533 0.11262 5.1092-1.109 0.86684-2.7507 0.80608-3.8492-0.04541-0.36988-0.1549-0.98772-0.93496-1.167-0.76038v3.501h-1.4207v2.6312h-2.901v3.522h15.588v-3.522h-3.0469v-2.6312h-1.315c0.0023-1.9754-0.0046-3.9522 0.0031-5.9264-0.20336-1.7122-1.727-3.1696-3.4887-3.0878zm7.1199-12.235c0.06656 0.75392-0.16302 1.5326-0.72312 2.0807-0.55589 0.60126-1.396 0.91128-2.2095 0.83368-0.06176-0.0038-0.12304-0.01093-0.18351-0.01944l0.65629 2.7625 4.7775 1.6067-3.7809-2.3444 0.63078-1.6589 1.2603-1.0415 1.5398-0.13856 1.5958 3.8842-0.63195-4.8857z" style="fill:#656565"/>
  <path d="m21.739 7.8463c-0.42927 0.00998-0.85804-0.14503-1.1765-0.43428 0.26418-0.2826 0.46792-0.62316 0.58174-0.99337 0.26055-0.69384 0.17701-1.4875-0.16367-2.139 0.23397-0.10052 0.48942-0.15182 0.74378-0.15556 0.67735-0.01617 1.3806 0.33355 1.6804 0.95926 0.34419 0.55787 0.2882 1.2949-0.04538 1.8441-0.3249 0.56362-0.9581 0.96608-1.6204 0.91878z" style="fill:#656565"/>
  <path d="m21.724 4.1238c-0.25438 0.00374-0.5086 0.05504-0.74257 0.15556 0.34067 0.65145 0.42328 1.4454 0.16273 2.1393-0.11383 0.37019-0.31663 0.71124-0.58081 0.99378 0.31843 0.28926 0.74736 0.4441 1.1766 0.43412 0.66237 0.0473 1.2953-0.3557 1.6202-0.91936 0.33357-0.54916 0.38885-1.2855 0.04466-1.8434-0.29981-0.62575-1.0035-0.97627-1.6808-0.9601zm-10.059 3.732c-1.3997-0.01957-2.3461-1.7463-1.5946-2.9316 0.44367-0.8816 1.4945-1.0714 2.3889-1.038 2.103-0.08678 4.2072-0.2779 6.3095-0.30045 1.3779 0.13815 2.1781 1.8937 1.3695 3.024-0.51586 0.8621-1.5804 0.94325-2.4799 0.93545-1.9978 0.09924-3.9951 0.23154-5.9934 0.31068z" style="fill:#656565"/>
  <a transform="matrix(2.3518,0,0,2.3518,2.9712,-10.859)" style="fill:#656565">
   <path d="m2.5725 7.1707c-0.31728 1.2932-0.60172 2.5961-0.90848 3.8923-0.20391 0.56778 0.20774 1.2464 0.81391 1.3033 0.43874 0.05933 0.89218-0.21142 1.0423-0.62892 0.28614-1.1455 0.54054-2.3002 0.80822-3.451-0.2966 0.00564-0.59246 0.00114-0.88625-0.0186-0.5483-0.10715-0.84704-0.59627-0.86972-1.0971z" style="fill:#656565"/>
  </a>
 </g>
 <text x="176.12062" y="160.62947" style="fill:#656565;font-family:sans-serif;font-size:36px;line-height:1.25;stroke-width:.375" xml:space="preserve"><tspan x="176.12062" y="160.62947" style="fill:#656565;font-family:'MesloLGM Nerd Font';font-size:36px;stroke-width:.375">robots</tspan></text>
 <text x="241.74448" y="204.25281" style="fill:#656565;font-family:sans-serif;font-size:11.614px;line-height:1.25;stroke-width:.29035;text-align:center;text-anchor:middle" xml:space="preserve"><tspan x="241.74448" y="204.25281" style="fill:#656565;font-family:'MesloLGM Nerd Font';stroke-width:.29035;text-align:center;text-anchor:middle">create and simulate ABB, KUKA, UR and Staubli robot programs</tspan></text>
</svg>
